<?xml version="1.0" encoding="UTF-8" standalone="no"?><!DOCTYPE svg PUBLIC "-//W3C//DTD SVG 1.1//EN" "http://www.w3.org/Graphics/SVG/1.1/DTD/svg11.dtd"><!-- Generated by graphviz version 2.40.1 (20161225.0304)
 --><!-- Title: G Pages: 1 --><svg xmlns="http://www.w3.org/2000/svg" xmlns:xlink="http://www.w3.org/1999/xlink" width="514pt" height="188pt" viewBox="0.00 0.00 513.92 188.00">
<g id="graph0" class="graph" transform="scale(1 1) rotate(0) translate(4 184)">
<title>G</title>
<polygon fill="#ffffff" stroke="transparent" points="-4,4 -4,-184 509.9202,-184 509.9202,4 -4,4"/>
<!-- white_chocolate -->
<g id="node1" class="node">
<title>white_chocolate</title>
<ellipse fill="none" stroke="#000000" cx="234.73" cy="-162" rx="74.1374" ry="18"/>
<text text-anchor="middle" x="234.73" y="-157.8" font-family="Times,serif" font-size="14.00" fill="#000000">white_chocolate</text>
</g>
<!-- papaya_with_cassis -->
<g id="node2" class="node">
<title>papaya_with_cassis</title>
<ellipse fill="none" stroke="#000000" cx="87.73" cy="-90" rx="87.9607" ry="18"/>
<text text-anchor="middle" x="87.73" y="-85.8" font-family="Times,serif" font-size="14.00" fill="#000000">papaya_with_cassis</text>
</g>
<!-- white_chocolate&#45;&gt;papaya_with_cassis -->
<g id="edge1" class="edge">
<title>white_chocolate-&gt;papaya_with_cassis</title>
<path fill="none" stroke="#000000" d="M201.7404,-145.8418C180.7599,-135.5656 153.3751,-122.1527 130.703,-111.048"/>
<polygon fill="#000000" stroke="#000000" points="132.1495,-107.8592 121.6293,-106.6037 129.0704,-114.1457 132.1495,-107.8592"/>
</g>
<!-- soursop -->
<g id="node3" class="node">
<title>soursop</title>
<ellipse fill="none" stroke="#000000" cx="234.73" cy="-90" rx="41.1529" ry="18"/>
<text text-anchor="middle" x="234.73" y="-85.8" font-family="Times,serif" font-size="14.00" fill="#000000">soursop</text>
</g>
<!-- white_chocolate&#45;&gt;soursop -->
<g id="edge2" class="edge">
<title>white_chocolate-&gt;soursop</title>
<path fill="none" stroke="#000000" d="M234.73,-143.8314C234.73,-136.131 234.73,-126.9743 234.73,-118.4166"/>
<polygon fill="#000000" stroke="#000000" points="238.2301,-118.4132 234.73,-108.4133 231.2301,-118.4133 238.2301,-118.4132"/>
</g>
<!-- kiwi -->
<g id="node4" class="node">
<title>kiwi</title>
<ellipse fill="none" stroke="#000000" cx="303.73" cy="-18" rx="28.4088" ry="18"/>
<text text-anchor="middle" x="303.73" y="-13.8" font-family="Times,serif" font-size="14.00" fill="#000000">kiwi</text>
</g>
<!-- white_chocolate&#45;&gt;kiwi -->
<g id="edge3" class="edge">
<title>white_chocolate-&gt;kiwi</title>
<path fill="none" stroke="#000000" d="M255.5985,-144.4821C265.8752,-134.7569 277.5666,-121.8439 284.73,-108 294.6686,-88.793 299.4092,-64.7217 301.67,-46.3073"/>
<polygon fill="#000000" stroke="#000000" points="305.1679,-46.5101 302.7351,-36.1984 298.2064,-45.7766 305.1679,-46.5101"/>
</g>
<!-- green_apple -->
<g id="node5" class="node">
<title>green_apple</title>
<ellipse fill="none" stroke="#000000" cx="143.73" cy="-18" rx="58.4493" ry="18"/>
<text text-anchor="middle" x="143.73" y="-13.8" font-family="Times,serif" font-size="14.00" fill="#000000">green_apple</text>
</g>
<!-- papaya_with_cassis&#45;&gt;green_apple -->
<g id="edge4" class="edge">
<title>papaya_with_cassis-&gt;green_apple</title>
<path fill="none" stroke="#000000" d="M101.5727,-72.2022C108.2864,-63.5704 116.4736,-53.0439 123.841,-43.5717"/>
<polygon fill="#000000" stroke="#000000" points="126.6699,-45.6354 130.0466,-35.593 121.1444,-41.3378 126.6699,-45.6354"/>
</g>
<!-- soursop&#45;&gt;kiwi -->
<g id="edge7" class="edge">
<title>soursop-&gt;kiwi</title>
<path fill="none" stroke="#000000" d="M250.7334,-73.3008C259.9597,-63.6734 271.6916,-51.4314 281.7706,-40.9142"/>
<polygon fill="#000000" stroke="#000000" points="284.3659,-43.2645 288.7581,-33.6229 279.312,-38.4212 284.3659,-43.2645"/>
</g>
<!-- soursop&#45;&gt;green_apple -->
<g id="edge6" class="edge">
<title>soursop-&gt;green_apple</title>
<path fill="none" stroke="#000000" d="M214.5342,-74.0209C202.3927,-64.4145 186.7265,-52.0192 173.2184,-41.3315"/>
<polygon fill="#000000" stroke="#000000" points="175.1513,-38.3978 165.1374,-34.9377 170.8079,-43.8873 175.1513,-38.3978"/>
</g>
<!-- papaya_com_cassis -->
<g id="node6" class="node">
<title>papaya_com_cassis</title>
<ellipse fill="none" stroke="#000000" cx="418.73" cy="-90" rx="87.3808" ry="18"/>
<text text-anchor="middle" x="418.73" y="-85.8" font-family="Times,serif" font-size="14.00" fill="#000000">papaya_com_cassis</text>
</g>
<!-- papaya_com_cassis&#45;&gt;kiwi -->
<g id="edge5" class="edge">
<title>papaya_com_cassis-&gt;kiwi</title>
<path fill="none" stroke="#000000" d="M391.1847,-72.7542C373.6432,-61.7718 350.9416,-47.5586 333.0641,-36.3657"/>
<polygon fill="#000000" stroke="#000000" points="334.5411,-33.161 324.2079,-30.8209 330.8264,-39.0941 334.5411,-33.161"/>
</g>
</g>
</svg>